# Blender v3.2.1 OBJ File: 'Blend_RollingStock1.blend'
# www.blender.org
mtllib SM_Puff_Dark_01.mtl
o SM_Puff_Dark_01_Icosphere.022
v 0.000000 -0.500000 0.000000
v 0.361800 -0.223607 0.262860
v -0.138193 -0.223607 0.425320
v -0.447212 -0.223607 0.000000
v -0.138193 -0.223607 -0.425320
v 0.361800 -0.223607 -0.262860
v 0.138193 0.223607 0.425320
v -0.361800 0.223607 0.262860
v -0.361800 0.223607 -0.262860
v 0.138193 0.223607 -0.425320
v 0.447212 0.223607 0.000000
v 0.000000 0.500000 0.000000
vt 0.607397 0.463153
vt 0.640957 0.405032
vt 0.661698 0.405032
vt 0.573838 0.405032
vt 0.607397 0.405032
vt 0.553096 0.405032
vt 0.607397 0.310991
vt 0.661698 0.310991
vt 0.640957 0.310991
vt 0.573838 0.310991
vt 0.553096 0.310991
vt 0.607397 0.252871
vn 0.1876 -0.7947 0.5774
vn 0.6071 -0.7947 0.0000
vn -0.4911 -0.7947 0.3568
vn -0.4911 -0.7947 -0.3568
vn 0.1876 -0.7947 -0.5774
vn 0.9822 -0.1876 0.0000
vn 0.3035 -0.1876 0.9342
vn -0.7946 -0.1876 0.5774
vn -0.7946 -0.1876 -0.5774
vn 0.3035 -0.1876 -0.9342
vn 0.7946 0.1876 0.5774
vn -0.3035 0.1876 0.9342
vn -0.9822 0.1876 0.0000
vn -0.3035 0.1876 -0.9342
vn 0.7946 0.1876 -0.5774
vn 0.4911 0.7947 0.3568
vn -0.1876 0.7947 0.5774
vn -0.6071 0.7947 0.0000
vn -0.1876 0.7947 -0.5774
vn 0.4911 0.7947 -0.3568
usemtl Gradiant
s off
f 1/1/1 2/2/1 3/3/1
f 2/2/2 1/1/2 6/4/2
f 1/1/3 3/3/3 4/5/3
f 1/1/4 4/5/4 5/6/4
f 1/1/5 5/6/5 6/4/5
f 2/2/6 6/4/6 11/7/6
f 3/3/7 2/2/7 7/8/7
f 4/5/8 3/3/8 8/9/8
f 5/6/9 4/5/9 9/10/9
f 6/4/10 5/6/10 10/11/10
f 2/2/11 11/7/11 7/8/11
f 3/3/12 7/8/12 8/9/12
f 4/5/13 8/9/13 9/10/13
f 5/6/14 9/10/14 10/11/14
f 6/4/15 10/11/15 11/7/15
f 7/8/16 11/7/16 12/12/16
f 8/9/17 7/8/17 12/12/17
f 9/10/18 8/9/18 12/12/18
f 10/11/19 9/10/19 12/12/19
f 11/7/20 10/11/20 12/12/20
